<?xml version="1.0" encoding="utf-8"?>
<!-- Generator: Adobe Illustrator 24.1.1, SVG Export Plug-In . SVG Version: 6.00 Build 0)  -->
<svg version="1.1" id="Слой_1" xmlns="http://www.w3.org/2000/svg" xmlns:xlink="http://www.w3.org/1999/xlink" x="0px" y="0px"
	 viewBox="0 0 139 139" style="enable-background:new 0 0 139 139;" xml:space="preserve">
<path d="M106.4,73.3l-8.1-3.9c7.5-7.6,11.8-17.9,11.8-28.7C110.1,18.3,91.9,0,69.4,0S28.6,18.3,28.6,40.8c0,10.7,4.3,21,11.9,28.7
	l-8,3.7c-22.2,9.1-19.7,37.3-19.7,37.6l0.2,1.9l1.3,1.5C35.7,137.2,60.8,139,68,139H71c7.2,0,32.3-1.8,53.6-24.8l1.3-1.5l0.2-1.8
	C126.1,110.6,128.6,82.3,106.4,73.3z M51.1,77.1L51.1,77.1c5.7,2.8,11.9,4.3,18.2,4.3c6.5,0,12.6-1.5,18.3-4.4l13.9,6.6l0.4,0.2
	c11,4.4,12.6,17.8,12.7,24.1c-19.5,19.9-42.2,19.6-44.7,19.5l0,0l-0.6,0c-2.6,0.1-25.4,0.4-44.8-19.5c0.1-6.4,1.7-19.7,12.7-24.1
	L51.1,77.1z M69.4,11.6c16.1,0,29.2,13.1,29.2,29.2S85.5,70,69.4,70c-16.1,0-29.2-13.1-29.2-29.2S53.3,11.6,69.4,11.6z"/>
</svg>
