<?xml version="1.0" encoding="utf-8"?>
<!-- Generator: Adobe Illustrator 19.0.0, SVG Export Plug-In . SVG Version: 6.00 Build 0)  -->
<svg version="1.1" id="Layer_1" xmlns="http://www.w3.org/2000/svg" xmlns:xlink="http://www.w3.org/1999/xlink" x="0px" y="0px"
	 viewBox="0 0 50 50" style="enable-background:new 0 0 50 50;" xml:space="preserve">
<circle id="XMLID_2_" cx="25" cy="25" r="1.7"/>
<g id="XMLID_3_">
	<path id="XMLID_9_" d="M25,32.2c-4,0-7.2-3.3-7.2-7.2s3.3-7.2,7.2-7.2s7.2,3.3,7.2,7.2S29,32.2,25,32.2z M25,18.7
		c-3.5,0-6.3,2.8-6.3,6.3s2.8,6.3,6.3,6.3s6.3-2.8,6.3-6.3S28.5,18.7,25,18.7z"/>
</g>
<g id="XMLID_4_">
	<path id="XMLID_6_" d="M25,50C11.2,50,0,38.8,0,25S11.2,0,25,0s25,11.2,25,25S38.8,50,25,50z M25,1.7C12.1,1.7,1.7,12.1,1.7,25
		S12.2,48.3,25,48.3c12.9,0,23.3-10.5,23.3-23.3C48.3,12.1,37.9,1.7,25,1.7z"/>
</g>
</svg>
