<?xml version="1.0" encoding="utf-8"?>
<!-- Generator: Adobe Illustrator 19.0.0, SVG Export Plug-In . SVG Version: 6.00 Build 0)  -->
<svg version="1.1" id="Capa_1" xmlns="http://www.w3.org/2000/svg" xmlns:xlink="http://www.w3.org/1999/xlink" x="0px" y="0px"
	 viewBox="23 -23.1 96.1 96.1" style="enable-background:new 23 -23.1 96.1 96.1;" xml:space="preserve">
<g>
	<path d="M95.1-23.1l-12.5,0c-14,0-23.1,9.3-23.1,23.7v10.9H47c-1.1,0-2,0.9-2,2v15.8c0,1.1,0.9,2,2,2h12.5V71c0,1.1,0.9,2,2,2h16.4
		c1.1,0,2-0.9,2-2V31.2h14.7c1.1,0,2-0.9,2-2l0-15.8c0-0.5-0.2-1-0.6-1.4s-0.9-0.6-1.4-0.6H79.8V2.2c0-4.4,1.1-6.7,6.8-6.7l8.4,0
		c1.1,0,2-0.9,2-2v-14.7C97-22.2,96.2-23.1,95.1-23.1z"/>
</g>
</svg>
