<?xml version="1.0" encoding="utf-8"?>
<!-- Generator: Adobe Illustrator 19.0.0, SVG Export Plug-In . SVG Version: 6.00 Build 0)  -->
<svg version="1.1" id="Layer_1" xmlns="http://www.w3.org/2000/svg" xmlns:xlink="http://www.w3.org/1999/xlink" x="0px" y="0px"
	 viewBox="0 0 50 50" style="enable-background:new 0 0 50 50;" xml:space="preserve">
<path d="M48.2,5.9H1.8C0.8,5.9,0,6.7,0,7.7v21.6c0,1,0.8,1.8,1.8,1.8h46.4c1,0,1.8-0.8,1.8-1.8V7.7C50,6.7,49.2,5.9,48.2,5.9z
	 M48.6,27.8c0,1-0.8,1.8-1.8,1.8H3.2c-1,0-1.8-0.8-1.8-1.8V9.1c0-1,0.8-1.8,1.8-1.8h43.6c1,0,1.8,0.8,1.8,1.8V27.8z"/>
<polygon points="4,50 2.3,50 4,31 6.3,31 "/>
<polygon points="45.9,50 47.6,50 45.9,31 43.5,31 "/>
<g>
	<path d="M47.1,30.1H26.5c-1.1,0-2-0.9-2-2V8.8c0-1.1,0.9-2,2-2h20.5c1.1,0,2,0.9,2,2v19.3C49.1,29.2,48.2,30.1,47.1,30.1z
		 M26.5,7.8c-0.6,0-1,0.5-1,1v19.3c0,0.6,0.5,1,1,1h20.5c0.6,0,1-0.5,1-1V8.8c0-0.6-0.5-1-1-1H26.5z"/>
</g>
<circle cx="45.8" cy="18.5" r="1.3"/>
<circle cx="19.2" cy="18.7" r="1.3"/>
<g>
	<rect x="1.6" y="13.3" width="0.8" height="16.7"/>
	<rect x="2.9" y="13.3" width="0.8" height="16.7"/>
	<rect x="4.2" y="13.3" width="0.8" height="16.7"/>
	<rect x="5.6" y="13.3" width="0.8" height="16.7"/>
	<rect x="-0.5" y="21.2" transform="matrix(0.1399 0.9902 -0.9902 0.1399 28.2026 10.7779)" width="16.7" height="0.8"/>
	<rect x="2.4" y="21.7" transform="matrix(0.3933 0.9194 -0.9194 0.3933 26.8712 3.5192)" width="16.7" height="0.8"/>
</g>
<g>
	<path d="M24,30.1h-6.5c-0.8,0-1.5-0.7-1.5-1.5V8.3c0-0.8,0.7-1.5,1.5-1.5H24c0.8,0,1.5,0.7,1.5,1.5v20.3
		C25.5,29.4,24.8,30.1,24,30.1z M17.5,7.8c-0.3,0-0.5,0.2-0.5,0.5v20.3c0,0.3,0.2,0.5,0.5,0.5H24c0.3,0,0.5-0.2,0.5-0.5V8.3
		c0-0.3-0.2-0.5-0.5-0.5H17.5z"/>
</g>
</svg>
