<?xml version="1.0" encoding="utf-8"?>
<!-- Generator: Adobe Illustrator 19.0.0, SVG Export Plug-In . SVG Version: 6.00 Build 0)  -->
<svg version="1.1" id="Layer_1" xmlns="http://www.w3.org/2000/svg" xmlns:xlink="http://www.w3.org/1999/xlink" x="0px" y="0px"
	 viewBox="0 0 960 560" style="enable-background:new 0 0 960 560;" xml:space="preserve">
<style type="text/css">
	.st0{fill:#FEFDFF;}
</style>
<g id="XMLID_2_">
	<path id="XMLID_3_" class="st0" d="M174.2,216.8l-22-125L99.6,210.5h-2.4L44.8,91.9L22.6,216.8h-6.5L40.4,79.4h5.7l52.2,119.3
		l52.6-119.3h5.8l24,137.3H174.2z"/>
	<path id="XMLID_5_" class="st0" d="M305.9,165.7H207c1,27.1,20.7,46.9,46.9,46.9c18.7,0,33.6-9.7,42.1-26.1h6.7
		c-10,20.9-27.1,32.3-48.7,32.3c-30.2,0-53.1-23.7-53.1-55.2c0-31.1,22.9-54.9,53.1-54.9c30.5,0,52.1,23.7,52.1,54.3
		C306,163.9,306,164.9,305.9,165.7z M253.9,114.8c-25.6,0-45,18.9-46.8,45h92.7C298.2,133,278.8,114.8,253.9,114.8L253.9,114.8z"/>
	<path id="XMLID_8_" class="st0" d="M334.5,73.4h6.3v143.3h-6.3V73.4z"/>
	<path id="XMLID_10_" class="st0" d="M370,163.8c0-31.7,23.7-55,55.1-55c31.6,0,55.1,23.5,55.1,55s-23.5,55-55.1,55
		C393.6,218.8,370,195.3,370,163.8z M473.8,163.8c0-28-20.7-48.9-48.7-48.9c-28,0-48.7,20.7-48.7,48.9c0,28,20.9,48.9,48.7,48.9
		C453.1,212.7,473.8,191.8,473.8,163.8z"/>
	<path id="XMLID_13_" class="st0" d="M660.2,149.9v66.8h-6.1l-0.1-65.4c0-22.2-12-36.7-30.2-36.7c-21,0-35.7,16.3-35.8,40.2v61.9
		h-6.2v-65.4c0-22.5-11.8-36.7-30.3-36.7c-21,0-35.7,16.3-35.8,40.2v61.9h-6.3V110.8h5l1,21.6c6.6-14.7,20.2-23.6,37.1-23.6
		c16.9,0,29.4,10.5,33.7,27.1c6-16.7,20.3-27.1,38.4-27.1C646,108.8,660.2,125.3,660.2,149.9z"/>
	<path id="XMLID_15_" class="st0" d="M796.1,110.8v105.9h-5.5l-0.7-27.7c-8.5,17.9-26.2,29.7-48.3,29.7c-30.8,0-54-23.7-54-55
		c0-31.3,23.2-55,54-55c22.2,0,39.9,11.8,48.4,29.7l0.8-27.7L796.1,110.8z M789.7,163.8c0-28.2-20.2-48.9-47.8-48.9
		c-27.4,0-48,21.1-48,48.9c0,27.9,20.6,48.9,48,48.9C769.6,212.7,789.7,192,789.7,163.8z"/>
	<path id="XMLID_18_" class="st0" d="M923.8,154.1v62.7h-6.3v-61.6c0-25.3-13.7-40.5-36.4-40.5c-21.6,0-40.1,18.6-40.1,40.4v61.7
		h-6.3V110.8h5l1.1,24.4c7.2-15.6,23.3-26.5,41.5-26.5C907.8,108.8,923.8,126.8,923.8,154.1z"/>
</g>
</svg>
