<?xml version="1.0" encoding="utf-8"?>
<!-- Generator: Adobe Illustrator 19.0.0, SVG Export Plug-In . SVG Version: 6.00 Build 0)  -->
<svg version="1.1" id="Layer_1" xmlns="http://www.w3.org/2000/svg" xmlns:xlink="http://www.w3.org/1999/xlink" x="0px" y="0px"
	 viewBox="0 0 50 50" style="enable-background:new 0 0 50 50;" xml:space="preserve">
<path id="XMLID_1_" d="M35.1,26.5H14.9c-1.3,0-2.3-0.7-2.3-1.5l0,0c0-0.8,1-1.5,2.3-1.5H35c1.3,0,2.3,0.7,2.3,1.5l0,0
	C37.3,25.8,36.3,26.5,35.1,26.5z"/>
<g>
	<path d="M25,50C11.2,50,0,38.8,0,25C0,11.2,11.2,0,25,0s25,11.2,25,25C50,38.8,38.8,50,25,50z M25,2.8C12.8,2.8,2.8,12.8,2.8,25
		c0,12.2,9.9,22.2,22.2,22.2S47.2,37.2,47.2,25C47.2,12.8,37.2,2.8,25,2.8z"/>
</g>
</svg>
