<?xml version="1.0" encoding="utf-8"?>
<!-- Generator: Adobe Illustrator 19.0.0, SVG Export Plug-In . SVG Version: 6.00 Build 0)  -->
<svg version="1.1" id="Layer_1" xmlns="http://www.w3.org/2000/svg" xmlns:xlink="http://www.w3.org/1999/xlink" x="0px" y="0px"
	 viewBox="0 0 50 50" style="enable-background:new 0 0 50 50;" xml:space="preserve">
<g id="XMLID_1_">
	<path id="XMLID_23_" d="M39.7,31.5c-3.6,0-6.5-2.9-6.5-6.5s2.9-6.5,6.5-6.5s6.5,2.9,6.5,6.5S43.3,31.5,39.7,31.5z M39.7,19.5
		c-3,0-5.5,2.5-5.5,5.5c0,3,2.5,5.5,5.5,5.5s5.5-2.5,5.5-5.5C45.2,22,42.7,19.5,39.7,19.5z"/>
</g>
<g id="XMLID_3_">
	<path id="XMLID_20_" d="M39.7,29.1c-2.2,0-4.1-1.8-4.1-4.1c0-2.2,1.8-4.1,4.1-4.1s4.1,1.8,4.1,4.1C43.8,27.2,42,29.1,39.7,29.1z
		 M39.7,21.9c-1.7,0-3.1,1.4-3.1,3.1s1.4,3.1,3.1,3.1s3.1-1.4,3.1-3.1S41.4,21.9,39.7,21.9z"/>
</g>
<g id="XMLID_9_">
	<path id="XMLID_17_" d="M25,31.5c-3.6,0-6.5-2.9-6.5-6.5s2.9-6.5,6.5-6.5s6.5,2.9,6.5,6.5S28.6,31.5,25,31.5z M25,19.5
		c-3,0-5.5,2.5-5.5,5.5c0,3,2.5,5.5,5.5,5.5c3,0,5.5-2.5,5.5-5.5C30.5,22,28,19.5,25,19.5z"/>
</g>
<g id="XMLID_8_">
	<path id="XMLID_14_" d="M25,29.1c-2.2,0-4.1-1.8-4.1-4.1c0-2.2,1.8-4.1,4.1-4.1c2.2,0,4.1,1.8,4.1,4.1C29.1,27.2,27.2,29.1,25,29.1
		z M25,21.9c-1.7,0-3.1,1.4-3.1,3.1s1.4,3.1,3.1,3.1s3.1-1.4,3.1-3.1S26.7,21.9,25,21.9z"/>
</g>
<g id="XMLID_4_">
	<path id="XMLID_11_" d="M10.3,31.5c-3.6,0-6.5-2.9-6.5-6.5s2.9-6.5,6.5-6.5s6.5,2.9,6.5,6.5S13.9,31.5,10.3,31.5z M10.3,19.5
		c-3,0-5.5,2.5-5.5,5.5c0,3,2.5,5.5,5.5,5.5s5.5-2.5,5.5-5.5C15.8,22,13.3,19.5,10.3,19.5z"/>
</g>
<g id="XMLID_2_">
	<path id="XMLID_6_" d="M10.3,29.1c-2.2,0-4.1-1.8-4.1-4.1c0-2.2,1.8-4.1,4.1-4.1c2.2,0,4.1,1.8,4.1,4.1
		C14.4,27.2,12.5,29.1,10.3,29.1z M10.3,21.9c-1.7,0-3.1,1.4-3.1,3.1s1.4,3.1,3.1,3.1c1.7,0,3.1-1.4,3.1-3.1S12,21.9,10.3,21.9z"/>
</g>
</svg>
