<?xml version="1.0" encoding="utf-8"?>
<!-- Generator: Adobe Illustrator 19.0.0, SVG Export Plug-In . SVG Version: 6.00 Build 0)  -->
<svg version="1.1" id="Layer_1" xmlns="http://www.w3.org/2000/svg" xmlns:xlink="http://www.w3.org/1999/xlink" x="0px" y="0px"
	 viewBox="0 0 50 50" style="enable-background:new 0 0 50 50;" xml:space="preserve">
<path id="XMLID_1_" d="M35.2,26.5H15c-1.3,0-2.3-0.7-2.3-1.5l0,0c0-0.8,1-1.5,2.3-1.5h20.1c1.3,0,2.3,0.7,2.3,1.5l0,0
	C37.4,25.8,36.4,26.5,35.2,26.5z"/>
<path id="XMLID_3_" d="M26.5,14.9l0,20.2c0,1.3-0.7,2.3-1.5,2.3l0,0c-0.8,0-1.5-1-1.5-2.3l0-20.1c0-1.3,0.7-2.3,1.5-2.3l0,0
	C25.8,12.6,26.5,13.6,26.5,14.9z"/>
<g>
	<path d="M25,50c-13.8,0-25-11.2-25-25c0-13.8,11.2-25,25-25s25,11.2,25,25C50,38.8,38.8,50,25,50z M25,2.8
		C12.8,2.8,2.9,12.8,2.9,25c0,12.2,9.9,22.2,22.2,22.2S47.2,37.2,47.2,25C47.2,12.8,37.3,2.8,25,2.8z"/>
</g>
</svg>
