<?xml version="1.0" encoding="utf-8"?>
<!-- Generator: Adobe Illustrator 19.0.0, SVG Export Plug-In . SVG Version: 6.00 Build 0)  -->
<svg version="1.1" id="Layer_1" xmlns="http://www.w3.org/2000/svg" xmlns:xlink="http://www.w3.org/1999/xlink" x="0px" y="0px"
	 viewBox="0 0 50 50" style="enable-background:new 0 0 50 50;" xml:space="preserve">
<g id="XMLID_2_">
	<g id="XMLID_4_">
		<path id="XMLID_9_" d="M34.7,43.4c-4.5,0-8.1-3.7-8.1-8.1s3.7-8.1,8.1-8.1s8.1,3.7,8.1,8.1S39.2,43.4,34.7,43.4z M34.7,28.1
			c-3.9,0-7.1,3.2-7.1,7.1s3.2,7.1,7.1,7.1s7.1-3.2,7.1-7.1S38.7,28.1,34.7,28.1z M34.7,40.2c-2.8,0-5-2.2-5-5s2.2-5,5-5s5,2.2,5,5
			S37.5,40.2,34.7,40.2z M34.7,31.2c-2.2,0-4,1.8-4,4s1.8,4,4,4s4-1.8,4-4S36.9,31.2,34.7,31.2z"/>
	</g>
</g>
<g id="XMLID_1_">
	<path d="M7.8,43.2C7.8,43.2,7.8,43.2,7.8,43.2c-0.5,0-0.9-0.2-1.2-0.6c-0.3-0.3-0.5-0.8-0.5-1.3c0-0.4,0.2-0.8,0.6-1.1L40.2,6.5
		C40.6,6.2,41.1,6,41.6,6c0.4,0,0.8,0.2,1.1,0.6c0.3,0.3,0.5,0.7,0.5,1.2c0,0.5-0.2,0.9-0.5,1.3L9.1,42.7C8.7,43,8.3,43.2,7.8,43.2z
		 M41.5,7c-0.2,0-0.4,0.1-0.5,0.2L7.4,41c-0.2,0.2-0.2,0.3-0.2,0.4c0,0.2,0.1,0.4,0.2,0.6c0.2,0.2,0.3,0.2,0.4,0.2
		c0.2,0,0.4-0.1,0.6-0.2L41.9,8.3c0.3-0.3,0.3-0.8,0-1.1C41.8,7.1,41.6,7,41.5,7C41.5,7,41.5,7,41.5,7z"/>
</g>
<g id="XMLID_3_">
	<g id="XMLID_5_">
		<path id="XMLID_6_" d="M15.3,22.6c-4.5,0-8.1-3.7-8.1-8.1s3.7-8.1,8.1-8.1s8.1,3.7,8.1,8.1S19.8,22.6,15.3,22.6z M15.3,7.3
			c-3.9,0-7.1,3.2-7.1,7.1s3.2,7.1,7.1,7.1s7.1-3.2,7.1-7.1S19.2,7.3,15.3,7.3z M15.3,19.4c-2.8,0-5-2.2-5-5s2.2-5,5-5s5,2.2,5,5
			S18,19.4,15.3,19.4z M15.3,10.4c-2.2,0-4,1.8-4,4s1.8,4,4,4s4-1.8,4-4S17.5,10.4,15.3,10.4z"/>
	</g>
</g>
</svg>
