<?xml version="1.0" encoding="utf-8"?>
<!-- Generator: Adobe Illustrator 19.0.0, SVG Export Plug-In . SVG Version: 6.00 Build 0)  -->
<svg version="1.1" id="Capa_1" xmlns="http://www.w3.org/2000/svg" xmlns:xlink="http://www.w3.org/1999/xlink" x="0px" y="0px"
	 viewBox="-460 261.9 38.1 38.1" style="enable-background:new -460 261.9 38.1 38.1;" xml:space="preserve">
<style type="text/css">
	.st0{fill:#FD5825;}
</style>
<g>
	<g>
		<path class="st0" d="M-423.8,300h-34.3c-0.4,0-0.8-0.2-1.1-0.5c-0.3-0.3-0.4-0.7-0.4-1.1l1-26.8c0-0.8,0.7-1.4,1.5-1.4h32.3
			c0.8,0,1.5,0.6,1.5,1.4l1,26.8c0,0.4-0.1,0.8-0.4,1.1C-423,299.8-423.4,300-423.8,300z M-456.5,296.9h31.2l-0.9-23.7h-29.3
			L-456.5,296.9z"/>
	</g>
	<g>
		<path class="st0" d="M-448.4,278.7c-1.2,0-2.2-1-2.2-2.2s1-2.2,2.2-2.2s2.2,1,2.2,2.2S-447.2,278.7-448.4,278.7z M-448.4,276.3
			c-0.1,0-0.2,0.1-0.2,0.2c0,0.2,0.4,0.2,0.4,0C-448.2,276.4-448.3,276.3-448.4,276.3z"/>
	</g>
	<g>
		<path class="st0" d="M-433.4,278.7c-1.2,0-2.2-1-2.2-2.2s1-2.2,2.2-2.2s2.2,1,2.2,2.2S-432.1,278.7-433.4,278.7z M-433.4,276.3
			c-0.1,0-0.2,0.1-0.2,0.2c0,0.2,0.4,0.2,0.4,0C-433.2,276.4-433.3,276.3-433.4,276.3z"/>
	</g>
	<g>
		<path class="st0" d="M-433.4,277c-0.8,0-1.5-0.7-1.5-1.5V265h-12v10.5c0,0.8-0.7,1.5-1.5,1.5c-0.8,0-1.5-0.7-1.5-1.5v-12
			c0-0.8,0.7-1.5,1.5-1.5h15.1c0.8,0,1.5,0.7,1.5,1.5v12C-431.8,276.3-432.5,277-433.4,277z"/>
	</g>
</g>
</svg>
