<?xml version="1.0" encoding="utf-8"?>
<!-- Generator: Adobe Illustrator 19.0.0, SVG Export Plug-In . SVG Version: 6.00 Build 0)  -->
<svg version="1.1" id="Capa_1" xmlns="http://www.w3.org/2000/svg" xmlns:xlink="http://www.w3.org/1999/xlink" x="0px" y="0px"
	 viewBox="149.6 0.4 50 50" style="enable-background:new 149.6 0.4 50 50;" xml:space="preserve">
<g>
	<circle cx="174.7" cy="11.6" r="2.4"/>
	<g>
		<path d="M174.7,18.4c-3.7,0-6.7-3-6.7-6.7s3-6.7,6.7-6.7c3.7,0,6.7,3,6.7,6.7S178.4,18.4,174.7,18.4z M174.7,6.9
			c-2.6,0-4.7,2.1-4.7,4.7s2.1,4.7,4.7,4.7c2.6,0,4.7-2.1,4.7-4.7S177.3,6.9,174.7,6.9z"/>
	</g>
	<g>
		<path d="M174.7,45.6c-6.2,0-11.2-5-11.2-11.2s5-11.2,11.2-11.2s11.2,5,11.2,11.2S180.9,45.6,174.7,45.6z M174.7,25.1
			c-5.1,0-9.3,4.2-9.3,9.3s4.2,9.3,9.3,9.3c5.1,0,9.3-4.2,9.3-9.3S179.8,25.1,174.7,25.1z"/>
	</g>
	<g>
		<path d="M174.7,38.8c-2.5,0-4.5-2-4.5-4.5s2-4.5,4.5-4.5c2.5,0,4.5,2,4.5,4.5S177.2,38.8,174.7,38.8z M174.7,31.9
			c-1.4,0-2.5,1.1-2.5,2.5c0,1.4,1.1,2.5,2.5,2.5c1.4,0,2.5-1.1,2.5-2.5C177.2,33,176.1,31.9,174.7,31.9z"/>
	</g>
	<circle cx="162.2" cy="5.9" r="1.1"/>
	<circle cx="187.2" cy="5.9" r="1.1"/>
	<circle cx="187.2" cy="44.6" r="1.1"/>
	<circle cx="162.2" cy="44.6" r="1.1"/>
	<g>
		<path d="M188.7,50.4h-28.1c-2.3,0-4.2-1.9-4.2-4.2V4.6c0-2.3,1.9-4.2,4.2-4.2h28.1c2.3,0,4.2,1.9,4.2,4.2v41.6
			C192.9,48.5,191,50.4,188.7,50.4z M160.6,2.4c-1.2,0-2.2,1-2.2,2.2v41.6c0,1.2,1,2.2,2.2,2.2h28.1c1.2,0,2.2-1,2.2-2.2V4.6
			c0-1.2-1-2.2-2.2-2.2H160.6z"/>
	</g>
</g>
</svg>
