<?xml version="1.0" encoding="utf-8"?>
<!-- Generator: Adobe Illustrator 19.0.0, SVG Export Plug-In . SVG Version: 6.00 Build 0)  -->
<svg version="1.1" id="Layer_1" xmlns="http://www.w3.org/2000/svg" xmlns:xlink="http://www.w3.org/1999/xlink" x="0px" y="0px"
	 viewBox="0 0 50 50" style="enable-background:new 0 0 50 50;" xml:space="preserve">
<path id="telegram_2_" d="M46.7,3.3L1.9,21c-2.5,0.7-2.4,3.3-0.6,3.9l11.2,3.7l4.3,13.7c0.5,1.5,0.9,2.1,1.8,2.1
	c0.9,0,1.3-0.3,2.3-1.2c1.1-1.1,2.9-2.9,5.6-5.6l11.7,9c2.1,1.2,3.7,0.6,4.2-2.1l7.3-37.7C50.6,3.3,48.8,2.4,46.7,3.3z M14.3,27.7
	L39.8,11c1.3-0.9,1.7,0.1,1.1,0.8L19.7,31.6l-1.1,9.9L14.3,27.7z"/>
</svg>
