<?xml version="1.0" encoding="utf-8"?>
<!-- Generator: Adobe Illustrator 19.0.0, SVG Export Plug-In . SVG Version: 6.00 Build 0)  -->
<svg version="1.1" id="Layer_1" xmlns="http://www.w3.org/2000/svg" xmlns:xlink="http://www.w3.org/1999/xlink" x="0px" y="0px"
	 viewBox="0 0 50 50" style="enable-background:new 0 0 50 50;" xml:space="preserve">
<circle id="XMLID_2_" cx="25" cy="25" r="1.7"/>
<g id="XMLID_3_">
	<path id="XMLID_9_" d="M25,32.2c-4,0-7.2-3.3-7.2-7.2s3.3-7.2,7.2-7.2s7.2,3.3,7.2,7.2S29,32.2,25,32.2z M25,18.7
		c-3.5,0-6.3,2.8-6.3,6.3s2.8,6.3,6.3,6.3s6.3-2.8,6.3-6.3S28.5,18.7,25,18.7z"/>
</g>
<g id="XMLID_4_">
	<path id="XMLID_6_" d="M25,50C11.2,50,0,38.8,0,25S11.2,0,25,0s25,11.2,25,25S38.8,50,25,50z M25,1.7C12.1,1.7,1.7,12.1,1.7,25
		S12.2,48.3,25,48.3c12.9,0,23.3-10.5,23.3-23.3C48.3,12.1,37.9,1.7,25,1.7z"/>
</g>
<g id="XMLID_1_">
	<path id="XMLID_14_" d="M38.9,22.6c-0.1,0-0.2,0-0.4-0.1L34.4,21c-0.3-0.1-0.5-0.3-0.6-0.5s-0.1-0.5,0-0.8l2.2-6.2
		c0.2-0.5,0.8-0.8,1.3-0.6l4.2,1.5c0.3,0.1,0.5,0.3,0.6,0.5s0.1,0.5,0,0.8l-2.2,6.2C39.7,22.3,39.4,22.6,38.9,22.6z M36.1,19.4
		l2.3,0.8l1.5-4.2l-2.3-0.8L36.1,19.4z"/>
</g>
<g id="XMLID_5_">
	<path id="XMLID_13_" d="M39.2,15.4c-0.1,0-0.2,0-0.4-0.1c-0.5-0.2-0.8-0.8-0.6-1.3L43,0.7c0.2-0.5,0.8-0.8,1.3-0.6s0.8,0.8,0.6,1.3
		l-4.8,13.3C40,15.1,39.6,15.4,39.2,15.4z"/>
</g>
<g>
	<path d="M25,44C25,44,25,44,25,44c-2,0-4-0.3-5.8-0.9c-0.3-0.1-0.4-0.4-0.3-0.6c0.1-0.3,0.4-0.4,0.6-0.3c1.8,0.6,3.6,0.9,5.5,0.9
		c1.9,0,3.8-0.3,5.6-0.9c0.3-0.1,0.5,0.1,0.6,0.3c0.1,0.3-0.1,0.5-0.3,0.6C29,43.7,27,44,25,44z M10.1,36.4c-0.2,0-0.3-0.1-0.4-0.2
		C7.3,32.9,6,29.1,6,25c0-0.3,0.3-0.5,0.5-0.5C6.8,24.5,7,24.8,7,25c0,3.8,1.2,7.5,3.4,10.5c0.2,0.2,0.1,0.5-0.1,0.7
		C10.3,36.3,10.2,36.4,10.1,36.4z M39.9,36.3c-0.1,0-0.2,0-0.3-0.1c-0.2-0.2-0.3-0.5-0.1-0.7C41.8,32.5,43,28.8,43,25
		c0-0.3,0.2-0.5,0.5-0.5s0.5,0.2,0.5,0.5V25c0,4-1.3,7.9-3.6,11.1C40.3,36.3,40.1,36.3,39.9,36.3z M10,14.7c-0.1,0-0.2,0-0.3-0.1
		c-0.2-0.2-0.3-0.5-0.1-0.7c2.3-3.2,5.7-5.7,9.5-6.9c0.3-0.1,0.5,0.1,0.6,0.3c0.1,0.3-0.1,0.5-0.3,0.6c-3.6,1.2-6.7,3.5-9,6.6
		C10.3,14.6,10.2,14.7,10,14.7z M39.9,14.6c-0.2,0-0.3-0.1-0.4-0.2c-2.2-3-5.4-5.3-9-6.5c-0.3-0.1-0.4-0.4-0.3-0.6
		c0.1-0.3,0.4-0.4,0.6-0.3c3.8,1.2,7.1,3.6,9.5,6.9c0.2,0.2,0.1,0.5-0.1,0.7C40.1,14.6,40,14.6,39.9,14.6z"/>
</g>
<g>
	<path d="M25,38.9c-1.4,0-2.9-0.2-4.3-0.7c-0.3-0.1-0.4-0.4-0.3-0.6c0.1-0.3,0.4-0.4,0.6-0.3c2.6,0.8,5.4,0.8,8,0
		c0.3-0.1,0.5,0.1,0.6,0.3c0.1,0.3-0.1,0.5-0.3,0.6C27.9,38.7,26.5,38.9,25,38.9z M14.2,33.4c-0.2,0-0.3-0.1-0.4-0.2
		c-1.7-2.4-2.7-5.3-2.7-8.2c0-0.3,0.2-0.5,0.5-0.5c0,0,0,0,0,0c0.3,0,0.5,0.2,0.5,0.5c0,2.7,0.9,5.4,2.5,7.6
		c0.2,0.2,0.1,0.5-0.1,0.7C14.4,33.4,14.3,33.4,14.2,33.4z M35.9,33.4c-0.1,0-0.2,0-0.3-0.1c-0.2-0.2-0.3-0.5-0.1-0.7
		c0.8-1.1,1.4-2.3,1.8-3.6c0.4-1.3,0.6-2.6,0.6-4c0-0.3,0.2-0.5,0.5-0.5s0.5,0.2,0.5,0.5v0c0,1.4-0.2,2.9-0.7,4.3
		c-0.5,1.4-1.1,2.7-2,3.9C36.2,33.3,36,33.4,35.9,33.4z M14.1,17.7c-0.1,0-0.2,0-0.3-0.1c-0.2-0.2-0.3-0.5-0.1-0.7
		c1.7-2.4,4.2-4.2,6.9-5.1c0.3-0.1,0.5,0.1,0.6,0.3c0.1,0.3-0.1,0.5-0.3,0.6c-2.6,0.9-4.9,2.5-6.4,4.7
		C14.4,17.6,14.2,17.7,14.1,17.7z M35.9,17.6c-0.2,0-0.3-0.1-0.4-0.2c-1.6-2.2-3.9-3.8-6.5-4.7c-0.3-0.1-0.4-0.4-0.3-0.6
		c0.1-0.3,0.3-0.4,0.6-0.3l0,0c2.8,0.9,5.2,2.7,7,5c0.2,0.2,0.1,0.5-0.1,0.7C36.1,17.5,36,17.6,35.9,17.6z"/>
</g>
</svg>
