<?xml version="1.0" encoding="utf-8"?>
<!-- Generator: Adobe Illustrator 24.1.1, SVG Export Plug-In . SVG Version: 6.00 Build 0)  -->
<svg version="1.1" id="Layer_1" xmlns="http://www.w3.org/2000/svg" xmlns:xlink="http://www.w3.org/1999/xlink" x="0px" y="0px"
	 viewBox="0 0 512 512" style="enable-background:new 0 0 512 512;" xml:space="preserve">
<path d="M473.4,70.7c-25.8-31.6-61.5-49-100.5-49c-57.6,0-96.8,30.1-117,50.9c-20.1-20.7-59.3-50.9-117-50.9
	c-39.4,0-75.3,17.7-101.1,49.8C13.5,101.9,0,142.3,0,185.3C0,249,31.9,373,245.6,487.7c3.3,1.8,6.9,2.6,10.4,2.6
	c3.6,0,7.2-0.9,10.4-2.6C480.1,373,512,249,512,185.3C512,141.8,498.3,101.1,473.4,70.7z M274.8,119.1c0.3-0.5,34.1-53.2,98.2-53.2
	c61.6,0,94.9,61.5,94.9,119.4c0,50.8-23.3,101.4-69.1,150.6C354.1,383.6,297,420.3,256,443c-41-22.8-98.1-59.4-142.7-107.2
	C67.4,286.7,44.2,236,44.2,185.3c0-57.9,33.2-119.4,94.9-119.4c44.3,0,81.9,27.6,98.2,53.2c4.1,6.5,11.1,10.4,18.8,10.4c0,0,0,0,0,0
	C263.7,129.5,270.8,125.6,274.8,119.1z"/>
</svg>
